<svg height="64" viewBox="0 0 64 64" width="64" xmlns="http://www.w3.org/2000/svg"><g fill="#FF8F00"><path d="M25.037 39.036c-.021-.023-.021-.043-.049-.065-.856-.746-.906-2.151-.906-2.151V5.844c0-4.772-2.891-5.647-4.423-5.777h-7.145c-.806.022-4.14.38-4.14 4.803v31.876s.012 1.455-.793 2.135c-.028.022-.02.038-.039.06-3.239 2.567-5.334 6.518-5.334 10.974 0 7.743 6.276 14.02 14.02 14.02s14.02-6.276 14.02-14.02c-.001-4.4-2.041-8.31-5.211-10.879zm-8.607 21.89c-5.864 0-10.617-4.755-10.617-10.618 0-3.52 1.728-6.618 4.365-8.547.019-.019.021-.034.043-.052 1.342-1.148 1.463-3.478 1.463-3.478V6.719A3.116 3.116 0 0 1 14.8 3.604h2.856a3.115 3.115 0 0 1 3.115 3.115v31.598c.043.672.318 2.003 1.746 3.304.042.038.067.068.104.104 2.67 1.928 4.426 5.04 4.426 8.584 0 5.862-4.753 10.617-10.617 10.617z"/><path d="M20.302 44.955l-.008-.008c-2.21-1.979-2.398-4.103-2.411-4.607v-6.782c0-1.432-.979-1.55-1.246-1.558h-.726s-1.339-.024-1.339 1.655V40.1c-.055 1.078-.432 3.247-2.479 4.892l.005.005c-1.626 1.236-2.685 3.17-2.685 5.373a6.815 6.815 0 0 0 13.629 0c.001-2.228-1.082-4.18-2.74-5.415zM56.581 39.036c-.021-.023-.021-.043-.049-.065-.855-.746-.907-2.151-.907-2.151V5.844c0-4.772-2.89-5.647-4.42-5.777h-7.147c-.807.022-4.14.381-4.14 4.804v31.876s.011 1.455-.793 2.135c-.027.022-.02.038-.039.06-3.24 2.567-5.334 6.518-5.334 10.974 0 7.743 6.277 14.02 14.02 14.02 7.744 0 14.021-6.276 14.021-14.02-.001-4.401-2.042-8.311-5.212-10.88zm-8.608 21.89c-5.862 0-10.616-4.755-10.616-10.618 0-3.52 1.727-6.618 4.365-8.547.018-.019.021-.034.043-.052 1.342-1.148 1.465-3.478 1.465-3.478V6.719a3.114 3.114 0 0 1 3.115-3.115h2.854a3.114 3.114 0 0 1 3.116 3.115v31.598c.042.672.319 2.003 1.746 3.304.043.038.066.068.104.104 2.671 1.928 4.427 5.04 4.427 8.584 0 5.862-4.753 10.617-10.619 10.617z"/><path d="M51.847 44.955l-.009-.008c-2.209-1.979-2.397-4.103-2.41-4.607V17.858c0-1.266-.926-1.424-1.3-1.438h-.759c-.319.008-1.276.154-1.276 1.657V34.79h.024v5.31c-.055 1.078-.433 3.247-2.479 4.892.001.002.003.003.003.005-1.625 1.236-2.684 3.17-2.684 5.373a6.815 6.815 0 1 0 13.63 0c.001-2.228-1.082-4.18-2.74-5.415z"/></g></svg>