<svg height="64" viewBox="0 0 64 64" width="64" xmlns="http://www.w3.org/2000/svg"><g fill="#FF8F00"><path d="M19.598 8.473c1.099-.507.941-1.289.779-1.676l-.119-.232c-.483-.943-1.283-.876-1.739-.744C7.944 10.397.475 20.761.16 32.944c.057.826.495 1.027.792 1.062h.713c.333-.062.79-.333.874-1.327.008-.08.02-.143.033-.207.696-10.765 7.449-19.85 16.893-23.929.049-.023.076-.043.133-.07zM45.815 5.963c-1.229-.487-1.794.082-1.99.403l-.26.507c-.131.337-.229 1.08 1.064 1.699.03.014.048.027.075.042 9.398 4.133 16.09 13.243 16.733 24.006.005 0 .019-.008.019-.008s-.047 1.418 1.126 1.418h.32c.317-.026.878-.215.937-1.095-.313-12.049-7.63-22.324-18.024-26.972z"/><path d="M32 10.255c-13.255 0-24.001 10.744-24.001 23.999S18.745 58.255 32 58.255c13.254 0 24.001-10.746 24.001-24.001S45.254 10.255 32 10.255zm12.676 27.393c-.014.25-.04.502-.072.756-.806 6.278-6.157 11.134-12.654 11.134-5.992 0-10.996-4.132-12.369-9.699-1.433-6.888 3.153-11.932 3.496-12.3a31.944 31.944 0 0 1 1.722-1.7l.002.012c.369-.345.723-.655 1.046-.93h.002l.005-.004s1.66-1.353 1.307-.001c-.528 1.827-1.278 5.103-.666 7.292l.005.017c.028.099.069.185.103.276.188.434.661 1.187 1.686 1.083.288 0 .995-.571 1.211-1.348 1.159-4.661.055-9.007-.852-11.464v-.001c-.33-.962-.246-1.438-.241-1.457.104-.238.313-.43.738-.3.064.032.133.056.196.089l-.002-.002c.095.044.185.077.299.152.069.044.122.07.176.097.474.272 1.255.773 2.152 1.559.005.002.005.004.007.005.003.003.005.005.006.008 2.241 1.967 5.16 5.718 5.706 12.049.004 0 .011-.003.011-.003s.042 1.14.753 1.437c.711.299 1.212-.786 1.288-1.155.024-.107.051-.229.075-.367.001-.011.057-.644.048-1.548-.044-1.664-.429-2.941-1.023-4.046l.019.011s-.086-.301.222-.472c.147-.099.382-.103.604.101 1.107 1.01 2.56 2.434 3.229 3.503.946 1.673 1.889 4.086 1.782 6.975-.008.079-.011.161-.017.241z"/></g></svg>